<svg width="40" height="25" viewBox="0 0 40 25" fill="none" xmlns="http://www.w3.org/2000/svg">
<path fill-rule="evenodd" clip-rule="evenodd" d="M31.3049 0.0259399C36.0956 0.0584068 39.8192 4.2825 39.7922 8.96031C39.7335 13.7884 35.9536 17.7007 31.3049 17.7008C29.4837 17.6884 27.6352 17.7008 25.8044 17.7008V23.3502C25.8044 23.7234 25.5018 24.0259 25.1287 24.0259H19.6871C19.3139 24.0259 19.0113 23.7234 19.0113 23.3502V9.721L13.4009 17.184C13.1307 17.5434 12.5914 17.5436 12.3209 17.1844L6.68746 9.70334V23.3502C6.68746 23.7234 6.38493 24.0259 6.01173 24.0259H0.675724C0.302532 24.0259 0 23.7234 0 23.3502V0.701664C0 0.328471 0.302532 0.0259399 0.675724 0.0259399H6.57469C6.79205 0.0259399 6.99613 0.130497 7.12311 0.306905L12.2198 7.38758C12.4851 7.75604 13.0309 7.76335 13.3059 7.40212L18.7183 0.292364C18.8461 0.124488 19.045 0.0259399 19.256 0.0259399C23.2723 0.0259399 27.2886 0.0259399 31.3049 0.0259399ZM25.8044 5.91906V11.8076L30.6428 11.7879C31.8341 11.7797 33.2 10.7016 33.2001 8.86331C33.2 7.02505 31.8341 5.94695 30.6428 5.93869L25.8044 5.91906Z" fill="#EFA418"/>
</svg>
